<?xml version="1.0" encoding="utf-8"?>
<!-- Generator: Adobe Illustrator 15.0.2, SVG Export Plug-In . SVG Version: 6.00 Build 0)  -->
<!DOCTYPE svg PUBLIC "-//W3C//DTD SVG 1.1//EN" "http://www.w3.org/Graphics/SVG/1.1/DTD/svg11.dtd">
<svg version="1.1" id="Calque_1" xmlns="http://www.w3.org/2000/svg" xmlns:xlink="http://www.w3.org/1999/xlink" x="0px" y="0px"
	 width="34px" height="34px" viewBox="0 0 34 34" enable-background="new 0 0 34 34" xml:space="preserve">
<path fill="#542954" d="M28,0H6C3.8,0,2,1.8,2,4v10v16v4h4h22h4v-4V14V4C32,1.8,30.2,0,28,0z"/>
<g>
	<path fill="#FFFBFF" d="M27.267,16.986l-9.693-8.837c-0.147-0.133-0.353-0.166-0.572-0.141c-0.22-0.025-0.427,0.007-0.575,0.141
		l-9.692,8.837c-0.349,0.318-0.255,0.991,0.21,1.502C7.411,19,8.072,19.157,8.421,18.835L17,11.017l8.578,7.821
		c0.349,0.319,1.011,0.164,1.476-0.346C27.521,17.978,27.615,17.306,27.267,16.986z"/>
	<path fill="#FFFBFF" d="M17.345,12.324c-0.168-0.149-0.448-0.151-0.618-0.002l-6.457,5.615c-0.17,0.148-0.31,0.454-0.31,0.68v6.969
		c0,0.229,0.184,0.415,0.411,0.415h4.143c0.227,0,0.412-0.186,0.412-0.415v-5.369c0-0.231,0.184-0.415,0.41-0.415h3.322
		c0.229,0,0.414,0.184,0.414,0.415v5.369c0,0.229,0.185,0.415,0.411,0.415h4.101c0.228,0,0.411-0.186,0.411-0.415v-6.969
		c0-0.23-0.135-0.533-0.309-0.682L17.345,12.324z"/>
	<path fill="#FFFBFF" d="M23.688,12.925c0.166,0.151,0.302,0.091,0.302-0.134V9.549c0-0.226-0.184-0.411-0.409-0.411h-2.42
		c-0.23,0-0.415,0.185-0.415,0.411v0.287c0,0.225,0.134,0.534,0.308,0.686L23.688,12.925z"/>
</g>
</svg>
