<?xml version="1.0" encoding="utf-8"?>
<!-- Generator: Adobe Illustrator 15.0.2, SVG Export Plug-In . SVG Version: 6.00 Build 0)  -->
<!DOCTYPE svg PUBLIC "-//W3C//DTD SVG 1.1//EN" "http://www.w3.org/Graphics/SVG/1.1/DTD/svg11.dtd">
<svg version="1.1" id="Calque_1" xmlns="http://www.w3.org/2000/svg" xmlns:xlink="http://www.w3.org/1999/xlink" x="0px" y="0px"
	 width="34px" height="34px" viewBox="0 0 34 34" enable-background="new 0 0 34 34" xml:space="preserve">
<path fill="#614161" enable-background="new    " d="M28,0H6C3.8,0,2,1.8,2,4v10v16v4h4h22h4v-4V14V4C32,1.8,30.2,0,28,0z"/>
<path opacity="0.45" fill="#FFFFFE" enable-background="new    " d="M28,0H6C3.8,0,2,1.8,2,4v10v16v4h4h22h4v-4V14V4
	C32,1.8,30.2,0,28,0z"/>
<path fill="#E5D7E5" d="M16.988,8c-5.073,0-4.828,6.264-4.828,6.264s-0.703-0.091-0.703,0.947c0,1.04,0.733,1.04,0.733,1.04
	c0,1.07,2.046,2.843,2.046,2.843v0.609C9.869,19.703,8.675,26,8.675,26h16.647c0,0-1.192-6.297-5.561-6.297v-0.609
	c0,0,2.045-1.773,2.045-2.843c0,0,0.737,0,0.737-1.04c0-1.037-0.703-0.947-0.703-0.947S22.086,8,17.012,8H16.988z"/>
</svg>
