<?xml version="1.0" encoding="utf-8"?>
<!-- Generator: Adobe Illustrator 15.0.2, SVG Export Plug-In . SVG Version: 6.00 Build 0)  -->
<!DOCTYPE svg PUBLIC "-//W3C//DTD SVG 1.1//EN" "http://www.w3.org/Graphics/SVG/1.1/DTD/svg11.dtd">
<svg version="1.1" id="Calque_1" xmlns="http://www.w3.org/2000/svg" xmlns:xlink="http://www.w3.org/1999/xlink" x="0px" y="0px"
	 width="34px" height="34px" viewBox="0 0 34 34" enable-background="new 0 0 34 34" xml:space="preserve">
<path fill="#614161" enable-background="new    " d="M28,0H6C3.8,0,2,1.8,2,4v10v16v4h4h22h4v-4V14V4C32,1.8,30.2,0,28,0z"/>
<path opacity="0.45" fill="#FFFFFE" enable-background="new    " d="M28,0H6C3.8,0,2,1.8,2,4v10v16v4h4h22h4v-4V14V4
	C32,1.8,30.2,0,28,0z"/>
<g>
	<path fill="#E5D7E5" d="M27.268,16.986l-9.693-8.837c-0.147-0.133-0.353-0.166-0.572-0.141c-0.22-0.025-0.427,0.007-0.575,0.141
		l-9.692,8.837c-0.35,0.319-0.255,0.991,0.21,1.5c0.466,0.513,1.127,0.671,1.476,0.349L17,11.016l8.579,7.822
		c0.349,0.319,1.01,0.164,1.476-0.346C27.521,17.977,27.616,17.305,27.268,16.986z"/>
	<path fill="#E5D7E5" d="M17.345,12.322c-0.168-0.149-0.448-0.151-0.618-0.002l-6.458,5.616c-0.17,0.147-0.31,0.455-0.31,0.681
		v6.969c0,0.229,0.185,0.415,0.412,0.415h4.143c0.226,0,0.411-0.186,0.411-0.415v-5.369c0-0.231,0.184-0.415,0.411-0.415h3.324
		c0.229,0,0.414,0.184,0.414,0.415v5.369c0,0.229,0.185,0.415,0.41,0.415h4.103c0.226,0,0.412-0.186,0.412-0.415v-6.969
		c0-0.231-0.136-0.533-0.31-0.683L17.345,12.322z"/>
	<path fill="#E5D7E5" d="M23.688,12.923c0.166,0.152,0.303,0.091,0.303-0.134V9.548c0-0.226-0.184-0.411-0.409-0.411h-2.42
		c-0.231,0-0.416,0.185-0.416,0.411v0.287c0,0.226,0.135,0.535,0.31,0.687L23.688,12.923z"/>
</g>
</svg>
