<?xml version="1.0" encoding="utf-8"?>
<!-- Generator: Adobe Illustrator 15.0.2, SVG Export Plug-In . SVG Version: 6.00 Build 0)  -->
<!DOCTYPE svg PUBLIC "-//W3C//DTD SVG 1.1//EN" "http://www.w3.org/Graphics/SVG/1.1/DTD/svg11.dtd">
<svg version="1.1" id="Calque_1" xmlns="http://www.w3.org/2000/svg" xmlns:xlink="http://www.w3.org/1999/xlink" x="0px" y="0px"
	 width="80px" height="80px" viewBox="0 0 80 80" enable-background="new 0 0 80 80" xml:space="preserve">
<g>
	<path fill="#FFFBFF" d="M28.931,49.023v-0.17c0-0.688,0.169-1.892,0.346-2.411c-3.099,0.173-5.681,0-7.573-0.345
		C16.366,45.064,10,42.312,10,35.597c0-5.164,4.991-9.81,9.639-11.359c0.514-0.172,1.891-0.514,1.891-0.172
		c0,0.344-0.688,0.517-1.377,0.861c-4.129,1.893-6.885,5.335-6.885,9.466c0,5.505,4.992,9.121,10.5,10.152
		c1.72,0.347,3.786,0.518,6.023,0.518c1.551-4.648,5.508-8.607,8.432-10.843c6.54-4.989,15.146-9.294,21.516-9.294
		c3.785,0,5.161,2.41,4.994,4.647c-0.349,4.476-5.854,7.916-11.017,10.499c-4.992,2.411-10.845,4.474-14.802,5.506
		c-0.688,1.377-1.033,2.926-1.033,3.958c0,2.581,1.375,3.959,3.785,3.959h0.176c2.235,0,8.089-1.202,15.662-6.37
		c3.268-2.236,7.745-5.852,10.497-8.261c1.035-0.859,1.549-1.033,1.895-0.687c0.346,0.515-0.174,1.205-1.375,2.236
		c-2.235,2.065-7.057,6.197-10.157,8.26c-7.233,4.821-14.287,7.403-20.141,7.403C31.855,56.081,28.931,53.327,28.931,49.023z
		 M51.646,38.526c4.306-2.927,6.889-6.537,7.058-8.95c0.172-1.548-0.514-2.411-2.065-2.411c-1.547,0-4.131,1.722-7.574,4.991
		c-2.752,2.582-7.056,8.091-9.122,11.529C43.387,42.828,48.036,40.936,51.646,38.526z"/>
</g>
</svg>
