<?xml version="1.0" encoding="utf-8"?>
<!-- Generator: Adobe Illustrator 15.0.2, SVG Export Plug-In . SVG Version: 6.00 Build 0)  -->
<!DOCTYPE svg PUBLIC "-//W3C//DTD SVG 1.1//EN" "http://www.w3.org/Graphics/SVG/1.1/DTD/svg11.dtd">
<svg version="1.1" id="Calque_1" xmlns="http://www.w3.org/2000/svg" xmlns:xlink="http://www.w3.org/1999/xlink" x="0px" y="0px"
	 width="92px" height="56px" viewBox="0 0 92 56" enable-background="new 0 0 92 56" xml:space="preserve">
<g>
	<path fill="#FFFBFF" d="M36.116,36.057v-0.152c0-0.614,0.152-1.689,0.308-2.151c-2.766,0.154-5.07,0-6.761-0.308
		c-4.764-0.923-10.449-3.382-10.449-9.375c0-4.611,4.456-8.759,8.604-10.142c0.46-0.153,1.689-0.459,1.689-0.153
		s-0.614,0.461-1.229,0.768c-3.687,1.69-6.147,4.763-6.147,8.451c0,4.916,4.456,8.143,9.374,9.065
		c1.535,0.309,3.38,0.462,5.378,0.462c1.384-4.15,4.918-7.683,7.529-9.68c5.839-4.455,13.522-8.297,19.208-8.297
		c3.38,0,4.609,2.151,4.458,4.148c-0.311,3.996-5.225,7.067-9.834,9.374c-4.456,2.153-9.681,3.996-13.214,4.916
		c-0.614,1.229-0.923,2.612-0.923,3.535c0,2.305,1.229,3.535,3.38,3.535h0.155c1.996,0,7.223-1.075,13.985-5.687
		c2.916-1.997,6.915-5.225,9.372-7.375c0.924-0.768,1.383-0.922,1.692-0.614c0.309,0.461-0.157,1.076-1.229,1.997
		c-1.995,1.844-6.3,5.532-9.067,7.375c-6.458,4.304-12.757,6.608-17.982,6.608C38.727,42.357,36.116,39.899,36.116,36.057z
		 M56.397,26.684c3.843-2.612,6.149-5.837,6.3-7.99c0.155-1.383-0.459-2.152-1.843-2.152c-1.382,0-3.688,1.537-6.763,4.456
		c-2.457,2.305-6.299,7.223-8.144,10.294C49.022,30.526,53.173,28.836,56.397,26.684z"/>
</g>
</svg>
