<?xml version="1.0" encoding="utf-8"?>
<!-- Generator: Adobe Illustrator 15.0.2, SVG Export Plug-In . SVG Version: 6.00 Build 0)  -->
<!DOCTYPE svg PUBLIC "-//W3C//DTD SVG 1.1//EN" "http://www.w3.org/Graphics/SVG/1.1/DTD/svg11.dtd">
<svg version="1.1" id="Calque_1" xmlns="http://www.w3.org/2000/svg" xmlns:xlink="http://www.w3.org/1999/xlink" x="0px" y="0px"
	 width="321px" height="24px" viewBox="0 0 321 24" enable-background="new 0 0 321 24" xml:space="preserve">
<rect x="80" y="1" fill="#FFF5F5" width="79" height="22"/>
<rect x="160" y="1" fill="#FFF5F5" width="80" height="22"/>
<path fill="#C0C0C0" d="M159,1v22H80V1H159L159,1z M160,0H79v24h81V0L160,0z"/>
<path fill="#C0C0C0" d="M239,1v22h-79V1H239L239,1z M240,0h-80v24h80V0L240,0z"/>
<path fill="#C0C0C0" d="M319,1v22h-79V1H319L319,1z M320,0h-81v24h81V0L320,0z"/>
<rect x="1" y="1" fill="#FFFFFF" width="79" height="22"/>
<rect x="240" y="1" fill="#FFFFFF" width="79" height="22"/>
<path fill="#C0C0C0" d="M79,1v22H1V1h79H79z M80,0H0v24h80V0L80,0z"/>
</svg>
