<?xml version="1.0" encoding="utf-8"?>
<!-- Generator: Adobe Illustrator 15.0.2, SVG Export Plug-In . SVG Version: 6.00 Build 0)  -->
<!DOCTYPE svg PUBLIC "-//W3C//DTD SVG 1.1//EN" "http://www.w3.org/Graphics/SVG/1.1/DTD/svg11.dtd">
<svg version="1.1" id="Calque_1" xmlns="http://www.w3.org/2000/svg" xmlns:xlink="http://www.w3.org/1999/xlink" x="0px" y="0px"
	 width="256px" height="256px" viewBox="0 0 256 256" enable-background="new 0 0 256 256" xml:space="preserve">
<g>
	<polygon opacity="0.08" fill="#2D2D2D" points="6,0 0,256 256,250 	"/>
	<polygon opacity="0.1" fill="#FFF5F5" enable-background="new    " points="256,250 256,0 6,0 	"/>
	<g>
		<polygon fill="#FFFFFF" points="6,0 6,250 256,250 		"/>
	</g>
	<g>
		<linearGradient id="SVGID_1_" gradientUnits="userSpaceOnUse" x1="6.7485" y1="249.252" x2="130.7012" y2="125.2993">
			<stop  offset="0" style="stop-color:#FFF5F5;stop-opacity:0.5"/>
			<stop  offset="1" style="stop-color:#FFFFFF;stop-opacity:0"/>
		</linearGradient>
		<polygon fill="url(#SVGID_1_)" points="6.5,249.5 6.5,1.207 254.793,249.5 		"/>
		<path fill="#FFFFFF" d="M7,2.414L253.586,249H7V2.414 M6,0v250h250L6,0L6,0z"/>
	</g>
	<g>
		<linearGradient id="SVGID_2_" gradientUnits="userSpaceOnUse" x1="53.4282" y1="202.5732" x2="131.15" y2="124.8514">
			<stop  offset="0.6293" style="stop-color:#FFFFFE;stop-opacity:0"/>
			<stop  offset="1" style="stop-color:#FFFFFE;stop-opacity:0.5"/>
		</linearGradient>
		<polygon fill="url(#SVGID_2_)" points="6.5,249.5 6.5,1.207 254.793,249.5 		"/>
		<path fill="#FFFFFE" d="M7,2.414L253.586,249H7V2.414 M6,0v250h250L6,0L6,0z"/>
	</g>
</g>
<path opacity="0.18" fill="#2D2D2D" enable-background="new    " d="M170.1,75.609V59.333l-29.236,24.236l29.236,22.236V89.97
	c7.076-2.07,22.569-9.318,46.187,9.298l-0.101-3.899C200.768,77.205,181.563,73.394,170.1,75.609z"/>
</svg>
