<?xml version="1.0" encoding="utf-8"?>
<!-- Generator: Adobe Illustrator 15.0.2, SVG Export Plug-In . SVG Version: 6.00 Build 0)  -->
<!DOCTYPE svg PUBLIC "-//W3C//DTD SVG 1.1//EN" "http://www.w3.org/Graphics/SVG/1.1/DTD/svg11.dtd">
<svg version="1.1" id="Calque_1" xmlns="http://www.w3.org/2000/svg" xmlns:xlink="http://www.w3.org/1999/xlink" x="0px" y="0px"
	 width="256px" height="256px" viewBox="0 0 256 256" enable-background="new 0 0 256 256" xml:space="preserve">
<g>
	<polygon opacity="0.08" fill="#2D2D2D" points="0,250 256,256 250,0 	"/>
	<polygon opacity="0.1" fill="#FFF5F5" enable-background="new    " points="250,0 0,0 0,250 	"/>
	<g>
		<polygon fill="#FFFFFF" points="0,250 250,250 250,0 		"/>
	</g>
	<g>
		<linearGradient id="SVGID_1_" gradientUnits="userSpaceOnUse" x1="63.7773" y1="311.0771" x2="311.6826" y2="63.1719">
			<stop  offset="0" style="stop-color:#FFF5F5;stop-opacity:0.5"/>
			<stop  offset="1" style="stop-color:#FFFFFF;stop-opacity:0"/>
		</linearGradient>
		<polygon fill="url(#SVGID_1_)" points="1.207,249.5 249.5,1.207 249.5,249.5 		"/>
		<path fill="#FFFFFF" d="M249,2.414V249H2.414L249,2.414 M250,0L0,250h250V0L250,0z"/>
	</g>
	<g>
		<linearGradient id="SVGID_2_" gradientUnits="userSpaceOnUse" x1="157.1357" y1="217.7188" x2="312.5793" y2="62.2752">
			<stop  offset="0.6293" style="stop-color:#FFFFFE;stop-opacity:0"/>
			<stop  offset="1" style="stop-color:#FFFFFE;stop-opacity:0.5"/>
		</linearGradient>
		<polygon fill="url(#SVGID_2_)" points="1.207,249.5 249.5,1.207 249.5,249.5 		"/>
		<path fill="#FFFFFE" d="M249,2.414V249H2.414L249,2.414 M250,0L0,250h250V0L250,0z"/>
	</g>
</g>
<polygon opacity="0.18" fill="#2D2D2D" enable-background="new    " points="50,73.686 73.684,73.686 73.684,50 91.451,50 
	91.451,73.686 115.137,73.686 115.137,91.453 91.451,91.453 91.451,115.139 73.684,115.139 73.684,91.453 50,91.453 "/>
</svg>
